<svg preserveAspectRatio="none" overflow="visible" style="display: block;" width="105.667" height="10.6667" viewBox="0 0 105.667 10.6667" fill="none" xmlns="http://www.w3.org/2000/svg">
<path id="Line 77" d="M0 5.33333C0 8.27885 2.38781 10.6667 5.33333 10.6667C8.27885 10.6667 10.6667 8.27885 10.6667 5.33333C10.6667 2.38781 8.27885 0 5.33333 0C2.38781 0 0 2.38781 0 5.33333ZM95 5.33333C95 8.27885 97.3878 10.6667 100.333 10.6667C103.279 10.6667 105.667 8.27885 105.667 5.33333C105.667 2.38781 103.279 0 100.333 0C97.3878 0 95 2.38781 95 5.33333ZM5.33333 5.33333V6.33333H100.333V5.33333V4.33333H5.33333V5.33333Z" fill="#323232"/>
</svg>
